<svg width="32" height="30" viewBox="0 0 32 30" fill="none" xmlns="http://www.w3.org/2000/svg">
<path id="M" d="M24.4865 15.4348L25.9538 12.7529V29.0659H24.4865V15.4348ZM27.258 11.0134L28.8884 7.61124V29.0659H27.258V11.0134ZM18.9859 17.1019L18.1708 15.5843L27.258 -0.00390625H28.8884L18.9859 17.1019ZM17.5186 14.6375L16.8238 13.3328L24.4865 -0.00390625H25.9538L17.5186 14.6375ZM6.06356 12.3951L7.53087 15.1103V29.0659H6.06356V12.3951ZM3.29197 7.61124L4.75928 10.2206V29.0659H3.29197V7.61124ZM13.8892 21.4825H12.2589L1.82148 2.40103V29.0659H0.400024V-0.00390625H1.99916L13.8892 21.4825ZM16.8238 21.4825H15.1935L3.29197 -0.00390625H5.23692L16.8238 21.4825ZM30.1927 2.40103L20.0832 21.4825H17.9651L6.55266 -0.00390625H8.4352L19.312 19.5662L30.1927 -0.00390625H31.5396V29.0659H30.1927V2.40103Z" fill="#0D0D0D"/>
</svg>
